<svg width="720" height="540" viewBox="0 0 720 540" fill="none" xmlns="http://www.w3.org/2000/svg">
  <rect width="720" height="540" rx="32" fill="#F5F7FB"/>
  <g opacity="0.9">
    <rect x="132" y="92" width="456" height="280" rx="24" fill="#0F172A"/>
    <rect x="156" y="116" width="408" height="232" rx="16" fill="#111827" stroke="#3B82F6" stroke-width="2"/>
    <rect x="174" y="142" width="112" height="12" rx="6" fill="#60A5FA"/>
    <rect x="174" y="170" width="180" height="10" rx="5" fill="#E2E8F0" opacity="0.7"/>
    <rect x="174" y="192" width="148" height="10" rx="5" fill="#E2E8F0" opacity="0.5"/>
    <rect x="174" y="236" width="220" height="54" rx="12" fill="#1E3A8A"/>
    <rect x="410" y="236" width="126" height="54" rx="12" fill="#2563EB"/>
    <path d="M196 270H365" stroke="#93C5FD" stroke-width="6" stroke-linecap="round"/>
    <path d="M196 255L220 245L250 261L290 224L332 251" stroke="#BFDBFE" stroke-width="5" stroke-linecap="round" stroke-linejoin="round"/>
    <circle cx="220" cy="245" r="7" fill="#F59E0B"/>
    <circle cx="290" cy="224" r="7" fill="#F59E0B"/>
    <circle cx="332" cy="251" r="7" fill="#F59E0B"/>
    <rect x="174" y="312" width="86" height="10" rx="5" fill="#E2E8F0" opacity="0.5"/>
    <rect x="268" y="312" width="110" height="10" rx="5" fill="#E2E8F0" opacity="0.5"/>
    <rect x="390" y="312" width="80" height="10" rx="5" fill="#E2E8F0" opacity="0.5"/>
  </g>

  <g>
    <rect x="296" y="360" width="128" height="18" rx="9" fill="#E5E7EB"/>
    <rect x="224" y="386" width="272" height="18" rx="9" fill="#E5E7EB"/>
  </g>

  <g>
    <rect x="96" y="322" width="118" height="86" rx="18" fill="#FFFFFF" stroke="#D1D5DB"/>
    <rect x="118" y="345" width="74" height="14" rx="7" fill="#D6E9FF"/>
    <rect x="118" y="366" width="54" height="10" rx="5" fill="#94A3B8"/>
    <rect x="120" y="380" width="70" height="10" rx="5" fill="#94A3B8" opacity="0.8"/>
    <circle cx="112" cy="380" r="8" fill="#F97316" opacity="0.9"/>
  </g>

  <g>
    <path d="M506 268C506 237.072 531.072 212 562 212H594C624.928 212 650 237.072 650 268V320C650 350.928 624.928 376 594 376H562C531.072 376 506 350.928 506 320V268Z" fill="#FFFFFF" stroke="#D1D5DB"/>
    <path d="M520 268C520 245.909 537.909 228 560 228H596C618.091 228 636 245.909 636 268V320C636 342.091 618.091 360 596 360H560C537.909 360 520 342.091 520 320V268Z" fill="#EFF6FF"/>
    <path d="M534 270H590" stroke="#60A5FA" stroke-width="8" stroke-linecap="round"/>
    <path d="M540 300H590" stroke="#94A3B8" stroke-width="8" stroke-linecap="round"/>
    <path d="M546 330H580" stroke="#94A3B8" stroke-width="8" stroke-linecap="round"/>
    <circle cx="614" cy="340" r="22" fill="#F97316"/>
    <path d="M614 322V358" stroke="#FFF" stroke-width="6" stroke-linecap="round"/>
    <path d="M596 340H632" stroke="#FFF" stroke-width="6" stroke-linecap="round"/>
  </g>

  <g>
    <rect x="150" y="58" width="180" height="28" rx="14" fill="#E0F2FE"/>
    <text x="170" y="78" fill="#1D4ED8" font-family="Montserrat, Arial, sans-serif" font-size="17" font-weight="700">4+ YEARS</text>
  </g>
</svg>
